<svg xmlns="http://www.w3.org/2000/svg" viewBox="0 0 100 100">
  <!-- NixOS lambda snowflake – MIT License, NixOS project (nixos/nixos-artwork) -->
  <g fill="currentColor">
    <path d="M50 5 L39 30 L45 30 L50 22 L55 30 L61 30 Z"/>
    <path d="M50 5 L39 30 L45 30 L50 22 L55 30 L61 30 Z" transform="rotate(60 50 50)"/>
    <path d="M50 5 L39 30 L45 30 L50 22 L55 30 L61 30 Z" transform="rotate(120 50 50)"/>
    <path d="M50 5 L39 30 L45 30 L50 22 L55 30 L61 30 Z" transform="rotate(180 50 50)"/>
    <path d="M50 5 L39 30 L45 30 L50 22 L55 30 L61 30 Z" transform="rotate(240 50 50)"/>
    <path d="M50 5 L39 30 L45 30 L50 22 L55 30 L61 30 Z" transform="rotate(300 50 50)"/>
  </g>
</svg>
